<svg width="989.6799804687499px" height="178.41876831054688px" xmlns="http://www.w3.org/2000/svg" viewBox="-244.83999023437497 -14.20938415527344 989.6799804687499 178.41876831054688" style="background: rgba(0, 0, 0, 0);" preserveAspectRatio="xMidYMid"><defs><filter id="editing-extrude-glow"><feFlood flood-color="rgba(87.14285714285714%,2.532075471698114%,2.532075471698114%,0.561)" result="flood-1"></feFlood><feMorphology operator="erode" radius="1" in="SourceAlpha" result="erode"></feMorphology><feComposite operator="in" in="flood-1" in2="erode" result="comp1"></feComposite><feConvolveMatrix order="1,1" divisor="1" in="comp1" result="convolve" kernelMatrix="1"></feConvolveMatrix><feOffset dx="-1" dy="0" in="convolve" result="extrude"></feOffset><feComposite operator="in" in="flood-1" in2="extrude" result="comp-extrude"></feComposite><feFlood flood-color="#625dd8" result="flood-2"></feFlood><feComposite operator="in" in="flood-2" in2="SourceAlpha" result="comp2"></feComposite><feMorphology operator="dilate" radius="1" in="comp2" result="dilate"></feMorphology><feOffset dx="-1.5" dy="0" in="dilate" result="offset"></feOffset><feGaussianBlur in="offset" stdDeviation="5.8" result="blur"></feGaussianBlur><feComponentTransfer in="blur" result="shadow"><feFuncA type="linear" slope="0.8" intercept="-0.2"></feFuncA></feComponentTransfer><feMerge><feMergeNode in="shadow"></feMergeNode><feMergeNode in="comp-extrude"></feMergeNode><feMergeNode in="SourceGraphic"></feMergeNode></feMerge></filter></defs><g filter="url(#editing-extrude-glow)"><g transform="translate(-107.09998178482056, 112.3515625)"><path d="M53.90-20.70L53.90-20.70L53.90-20.70Q56.50-18.80 56.50-14.75L56.50-14.75L56.50-14.75Q56.50-10.70 54.75-7.85L54.75-7.85L54.75-7.85Q53-5 49.60-2.80L49.60-2.80L49.60-2.80Q42.30 1.90 29.55 1.90L29.55 1.90L29.55 1.90Q16.80 1.90 9.85-4.75L9.85-4.75L9.85-4.75Q2.90-11.40 2.90-23.20L2.90-23.20L2.90-23.20Q2.90-39.90 11.60-52.60L11.60-52.60L11.60-52.60Q18.20-62 30-66L30-66L30-66Q36.10-68 42.10-68L42.10-68L42.10-68Q48.10-68 51.80-67.20L51.80-67.20L51.80-67.20Q55.50-66.40 58.30-64.80L58.30-64.80L58.30-64.80Q64.40-61.30 64.40-55.70L64.40-55.70L64.40-55.70Q64.40-50.60 59.60-46.80L59.60-46.80L59.60-46.80Q55.20-43.40 51.60-43.40L51.60-43.40L51.60-43.40Q48-43.40 46.50-43.90L46.50-43.90L46.50-43.90Q46.90-47.50 46.90-49.85L46.90-49.85L46.90-49.85Q46.90-52.20 46.80-53.90L46.80-53.90L46.80-53.90Q46.70-55.60 46.20-57.20L46.20-57.20L46.20-57.20Q45.20-60.90 42.15-60.90L42.15-60.90L42.15-60.90Q39.10-60.90 36.05-58.05L36.05-58.05L36.05-58.05Q33-55.20 30.40-50.40L30.40-50.40L30.40-50.40Q24.50-39.50 24.50-26.60L24.50-26.60L24.50-26.60Q24.50-20.40 28-16.85L28-16.85L28-16.85Q31.50-13.30 39-13.30L39-13.30L39-13.30Q44.60-13.30 49.90-17L49.90-17L49.90-17Q52.20-18.60 53.90-20.70ZM63.80-0.50L63.80-0.50L76.40-66L76.40-66Q88.20-67 95.80-67L95.80-67L95.80-67Q103.40-67 108.30-66.35L108.30-66.35L108.30-66.35Q113.20-65.70 116.50-64L116.50-64L116.50-64Q123.10-60.80 123.10-52L123.10-52L123.10-52Q123.10-46.90 118.70-42.60L118.70-42.60L118.70-42.60Q114.60-38.70 110.10-37.80L110.10-37.80L110.10-37.80Q114.90-37 118.30-33.40L118.30-33.40L118.30-33.40Q121.90-29.60 121.90-23.70L121.90-23.70L121.90-23.70Q121.90-12.30 113.40-5.65L113.40-5.65L113.40-5.65Q104.90 1 88.20 1L88.20 1L88.20 1Q76.70 1 63.80-0.50ZM91-32.20L86-6.30L86-6.30Q86.90-6.20 87.10-6.20L87.10-6.20L88-6.20L88-6.20Q96.20-6.20 99.70-11.60L99.70-11.60L99.70-11.60Q102.30-15.80 102.30-23.50L102.30-23.50L102.30-23.50Q102.30-27.60 99.65-29.80L99.65-29.80L99.65-29.80Q97-32 91-32.20L91-32.20ZM106.20-51.90L106.20-51.90L106.20-51.90Q106.20-60.20 98.20-60.20L98.20-60.20L97.30-60.20L97.30-60.20Q96.90-60.20 96.30-60.10L96.30-60.10L92.30-39L93.30-39L93.30-39Q106.20-39.30 106.20-51.90ZM171.90 2L171.90 2L171.90 2Q159.10 2 157.90-16.20L157.90-16.20L140.70-16.20L140.70-16.20Q138.70-11.60 137.30-7.60L137.30-7.60L134.70 0L120.70 0L152.20-66L173.70-66L177.90-17.40L177.90-17.40Q178.90-6.90 182.90-3.80L182.90-3.80L182.90-3.80Q180 2 171.90 2ZM149.30-36.20L143.80-23.50L157.60-23.50L156.40-49.20L156.40-51.90L149.30-36.20ZM213-16.20L213-16.20L213-16.20Q209.80-18.50 209.80-22.90L209.80-22.90L209.80-22.90Q209.80-25.30 211-27.25L211-27.25L211-27.25Q212.20-29.20 214.60-29.50L214.60-29.50L234.30-29.50L234.30-29.50Q237.60-29.50 238.60-31.50L238.60-31.50L238.60-31.50Q240.20-30.60 240.90-28.70L240.90-28.70L240.90-28.70Q241.60-26.80 241.60-24.80L241.60-24.80L241.60-24.80Q241.60-22.80 240.05-20.85L240.05-20.85L240.05-20.85Q238.50-18.90 236.20-18.70L236.20-18.70L217.90-18.70L217.90-18.70Q215.80-18.70 214.80-18.05L214.80-18.05L214.80-18.05Q213.80-17.40 213-16.20ZM313.00 2L313.00 2L313.00 2Q300.20 2 299.00-16.20L299.00-16.20L281.80-16.20L281.80-16.20Q279.80-11.60 278.40-7.60L278.40-7.60L275.80 0L261.80 0L293.30-66L314.80-66L319.00-17.40L319.00-17.40Q320.00-6.90 324.00-3.80L324.00-3.80L324.00-3.80Q321.10 2 313.00 2ZM290.40-36.20L284.90-23.50L298.70-23.50L297.50-49.20L297.50-51.90L290.40-36.20ZM378.90-41.60L378.90-41.60L378.90-41.60Q378.90-37.40 375.40-34.80L375.40-34.80L375.40-34.80Q371.90-32.20 366.20-32.20L366.20-32.20L366.20-32.20Q363.80-32.20 362.40-32.90L362.40-32.90L362.40-32.90Q363.50-35.50 363.85-38.75L363.85-38.75L363.85-38.75Q364.20-42 364.20-42.90L364.20-42.90L364.20-42.90Q364.20-47.10 361.30-47.10L361.30-47.10L361.30-47.10Q359.30-47.10 357.05-44.60L357.05-44.60L357.05-44.60Q354.80-42.10 352.90-38.20L352.90-38.20L352.90-38.20Q348.70-29.20 348.70-20.10L348.70-20.10L348.70-20.10Q348.70-15.10 350.60-12.85L350.60-12.85L350.60-12.85Q352.50-10.60 356.70-10.60L356.70-10.60L356.70-10.60Q362.50-10.60 367.10-15.40L367.10-15.40L367.10-15.40Q368.40-16.90 369.10-18.60L369.10-18.60L369.10-18.60Q372.90-16.60 372.90-11.10L372.90-11.10L372.90-11.10Q372.90-5.50 366.70-1.80L366.70-1.80L366.70-1.80Q360.30 2 350.10 2L350.10 2L350.10 2Q329.80 2 329.80-19.50L329.80-19.50L329.80-19.50Q329.80-35.20 338.70-44.20L338.70-44.20L338.70-44.20Q347.30-53 363.10-53L363.10-53L363.10-53Q378.90-53 378.90-41.60ZM430.70-41.60L430.70-41.60L430.70-41.60Q430.70-37.40 427.20-34.80L427.20-34.80L427.20-34.80Q423.70-32.20 418.00-32.20L418.00-32.20L418.00-32.20Q415.60-32.20 414.20-32.90L414.20-32.90L414.20-32.90Q415.30-35.50 415.65-38.75L415.65-38.75L415.65-38.75Q416.00-42 416.00-42.90L416.00-42.90L416.00-42.90Q416.00-47.10 413.10-47.10L413.10-47.10L413.10-47.10Q411.10-47.10 408.85-44.60L408.85-44.60L408.85-44.60Q406.60-42.10 404.70-38.20L404.70-38.20L404.70-38.20Q400.50-29.20 400.50-20.10L400.50-20.10L400.50-20.10Q400.50-15.10 402.40-12.85L402.40-12.85L402.40-12.85Q404.30-10.60 408.50-10.60L408.50-10.60L408.50-10.60Q414.30-10.60 418.90-15.40L418.90-15.40L418.90-15.40Q420.20-16.90 420.90-18.60L420.90-18.60L420.90-18.60Q424.70-16.60 424.70-11.10L424.70-11.10L424.70-11.10Q424.70-5.50 418.50-1.80L418.50-1.80L418.50-1.80Q412.10 2 401.90 2L401.90 2L401.90 2Q381.60 2 381.60-19.50L381.60-19.50L381.60-19.50Q381.60-35.20 390.50-44.20L390.50-44.20L390.50-44.20Q399.10-53 414.90-53L414.90-53L414.90-53Q430.70-53 430.70-41.60ZM473.90-16.90L473.90-16.90L473.90-16.90Q476.40-15.20 476.40-11.45L476.40-11.45L476.40-11.45Q476.40-7.70 474.50-5.30L474.50-5.30L474.50-5.30Q472.60-2.90 469.50-1.30L469.50-1.30L469.50-1.30Q463.10 2 456.20 2L456.20 2L456.20 2Q449.30 2 445.25 0.50L445.25 0.50L445.25 0.50Q441.20-1 438.50-3.80L438.50-3.80L438.50-3.80Q433.20-9.10 433.20-18.80L433.20-18.80L433.20-18.80Q433.20-33.90 441.40-43.10L441.40-43.10L441.40-43.10Q450.20-53 465.50-53L465.50-53L465.50-53Q475.00-53 479.70-49L479.70-49L479.70-49Q483.20-46 483.20-41.10L483.20-41.10L483.20-41.10Q483.20-23.50 452.80-23.50L452.80-23.50L452.80-23.50Q452.40-20.90 452.40-18.70L452.40-18.70L452.40-18.70Q452.40-14.10 454.45-12.35L454.45-12.35L454.45-12.35Q456.50-10.60 460.30-10.60L460.30-10.60L460.30-10.60Q464.10-10.60 468.15-12.35L468.15-12.35L468.15-12.35Q472.20-14.10 473.90-16.90ZM453.50-27.80L453.50-27.80L453.50-27.80Q460.60-27.80 464.70-32.20L464.70-32.20L464.70-32.20Q468.80-36.40 468.80-43.10L468.80-43.10L468.80-43.10Q468.80-45.40 467.95-46.65L467.95-46.65L467.95-46.65Q467.10-47.90 465.40-47.90L465.40-47.90L465.40-47.90Q463.70-47.90 462.25-47.25L462.25-47.25L462.25-47.25Q460.80-46.60 459.30-44.40L459.30-44.40L459.30-44.40Q455.60-39.40 453.50-27.80ZM516.50-35.10L516.50-35.10L516.50-35.10Q517.90-38.80 517.90-42L517.90-42L517.90-42Q517.90-47.90 513.10-47.90L513.10-47.90L513.10-47.90Q510.60-47.90 508.55-45.65L508.55-45.65L508.55-45.65Q506.50-43.40 506.50-40.60L506.50-40.60L506.50-40.60Q506.50-38.60 508.10-37L508.10-37L508.10-37Q510.40-34.80 516.30-31.20L516.30-31.20L516.30-31.20Q522.20-27.60 524.45-24.65L524.45-24.65L524.45-24.65Q526.70-21.70 526.70-17.65L526.70-17.65L526.70-17.65Q526.70-13.60 524.75-9.90L524.75-9.90L524.75-9.90Q522.80-6.20 519.30-3.60L519.30-3.60L519.30-3.60Q511.80 2 499.80 2L499.80 2L499.80 2Q493.30 2 488.30-1.40L488.30-1.40L488.30-1.40Q483.30-4.70 483.30-8.60L483.30-8.60L483.30-8.60Q483.30-12.50 486.15-14.80L486.15-14.80L486.15-14.80Q489.00-17.10 493.20-17.10L493.20-17.10L493.20-17.10Q497.40-17.10 500.00-15.50L500.00-15.50L500.00-15.50Q498.70-12.20 498.70-10L498.70-10L498.70-10Q498.70-3.40 504.30-3.40L504.30-3.40L504.30-3.40Q506.70-3.40 508.30-4.90L508.30-4.90L508.30-4.90Q509.90-6.40 509.90-9L509.90-9L509.90-9Q509.90-14.10 501.30-19.50L501.30-19.50L501.30-19.50Q494.30-24.10 492.70-25.90L492.70-25.90L492.70-25.90Q490.00-29.10 490.00-33.10L490.00-33.10L490.00-33.10Q490.00-37.10 491.90-40.90L491.90-40.90L491.90-40.90Q493.80-44.70 497.30-47.40L497.30-47.40L497.30-47.40Q504.60-53 517.30-53L517.30-53L517.30-53Q523.80-53 527.65-50.40L527.65-50.40L527.65-50.40Q531.50-47.80 531.50-43.40L531.50-43.40L531.50-43.40Q531.50-39 528.85-36.50L528.85-36.50L528.85-36.50Q526.20-34 521.40-34L521.40-34L521.40-34Q518.10-34 516.50-35.10ZM559.20-5.50L559.20-5.50L559.20-5.50Q556.10 2 546.20 2L546.20 2L546.20 2Q541.10 2 537.90-1.50L537.90-1.50L537.90-1.50Q535.20-4.60 535.20-7.70L535.20-7.70L535.20-7.70Q535.20-15.80 538.90-31.60L538.90-31.60L542.60-51L562.90-53L556.80-21.40L556.80-21.40Q555.10-14 555.10-11.40L555.10-11.40L555.10-11.40Q555.10-5.70 559.20-5.50ZM544.40-64.90L544.40-64.90L544.40-64.90Q544.40-68.80 547.65-70.90L547.65-70.90L547.65-70.90Q550.90-73 555.60-73L555.60-73L555.60-73Q560.30-73 563.15-70.90L563.15-70.90L563.15-70.90Q566-68.80 566-64.90L566-64.90L566-64.90Q566-61 562.85-59L562.85-59L562.85-59Q559.70-57 555-57L555-57L555-57Q550.30-57 547.35-59L547.35-59L547.35-59Q544.40-61 544.40-64.90ZM566.40-4.80L566.40-4.80L578.80-70L599.10-72L596-56.70L596-56.70Q594.90-52 593.50-48.70L593.50-48.70L593.50-48.70Q595.70-51.50 600.50-52.60L600.50-52.60L600.50-52.60Q601.90-53 603.60-53L603.60-53L603.60-53Q612.90-53 618-47.35L618-47.35L618-47.35Q623.10-41.70 623.10-30.80L623.10-30.80L623.10-30.80Q623.10-16.60 615-7.70L615-7.70L615-7.70Q606.30 2 590.50 2L590.50 2L590.50 2Q579.60 2 571.40-1.60L571.40-1.60L571.40-1.60Q568.50-2.90 566.40-4.80ZM591.80-35L586.50-5.70L586.50-5.70Q588.60-3.90 591.20-3.90L591.20-3.90L591.20-3.90Q593.80-3.90 595.30-4.90L595.30-4.90L595.30-4.90Q596.80-5.90 597.90-7.90L597.90-7.90L597.90-7.90Q600.90-13.30 603.30-29.80L603.30-29.80L603.30-29.80Q604-34.50 604-39.20L604-39.20L604-39.20Q604-43.90 602.95-45.40L602.95-45.40L602.95-45.40Q601.90-46.90 599.90-46.90L599.90-46.90L599.90-46.90Q593.80-46.90 591.80-35L591.80-35ZM653-5.50L653-5.50L653-5.50Q649.90 2 640 2L640 2L640 2Q635 2 631.80-1.50L631.80-1.50L631.80-1.50Q629.20-4.40 629.20-7.70L629.20-7.70L629.20-7.70Q629.20-15.20 632.70-31.60L632.70-31.60L640-70L660.30-72L650.60-21.40L650.60-21.40Q648.90-14 648.90-11.40L648.90-11.40L648.90-11.40Q648.90-5.70 653-5.50ZM702-16.90L702-16.90L702-16.90Q704.50-15.20 704.50-11.45L704.50-11.45L704.50-11.45Q704.50-7.70 702.60-5.30L702.60-5.30L702.60-5.30Q700.70-2.90 697.60-1.30L697.60-1.30L697.60-1.30Q691.20 2 684.30 2L684.30 2L684.30 2Q677.40 2 673.35 0.50L673.35 0.50L673.35 0.50Q669.30-1 666.60-3.80L666.60-3.80L666.60-3.80Q661.30-9.10 661.30-18.80L661.30-18.80L661.30-18.80Q661.30-33.90 669.50-43.10L669.50-43.10L669.50-43.10Q678.30-53 693.60-53L693.60-53L693.60-53Q703.10-53 707.80-49L707.80-49L707.80-49Q711.30-46 711.30-41.10L711.30-41.10L711.30-41.10Q711.30-23.50 680.90-23.50L680.90-23.50L680.90-23.50Q680.50-20.90 680.50-18.70L680.50-18.70L680.50-18.70Q680.50-14.10 682.55-12.35L682.55-12.35L682.55-12.35Q684.60-10.60 688.40-10.60L688.40-10.60L688.40-10.60Q692.20-10.60 696.25-12.35L696.25-12.35L696.25-12.35Q700.30-14.10 702-16.90ZM681.60-27.80L681.60-27.80L681.60-27.80Q688.70-27.80 692.80-32.20L692.80-32.20L692.80-32.20Q696.90-36.40 696.90-43.10L696.90-43.10L696.90-43.10Q696.90-45.40 696.05-46.65L696.05-46.65L696.05-46.65Q695.20-47.90 693.50-47.90L693.50-47.90L693.50-47.90Q691.80-47.90 690.35-47.25L690.35-47.25L690.35-47.25Q688.90-46.60 687.40-44.40L687.40-44.40L687.40-44.40Q683.70-39.40 681.60-27.80Z" fill="#ffffff"></path></g></g><style>text {
  font-size: 64px;
  font-family: Arial Black;
  dominant-baseline: central;
  text-anchor: middle;
}</style></svg>