<?xml version="1.0" encoding="iso-8859-1"?>
<!-- Generator: Adobe Illustrator 19.0.0, SVG Export Plug-In . SVG Version: 6.00 Build 0)  -->
<svg version="1.1" id="Capa_1" xmlns="http://www.w3.org/2000/svg" xmlns:xlink="http://www.w3.org/1999/xlink" x="0px" y="0px"
	 viewBox="0 0 512 512" style="enable-background:new 0 0 512 512;" xml:space="preserve">
<path style="fill:#FF5050;" d="M285.531,215.036c-16.717,0.018-23.549,13.489-24.061,14.08c-1.934,2.217-4.508,2.672-7.118-0.05
	c-14.053-24.726-51.593-14.352-51.565,13.638c0.032,30.855,27.24,55.216,53.969,67.832c0.4,0.189,0.831,0.283,1.262,0.283
	c0.433,0,0.867-0.095,1.268-0.286c4.25-2.016,15.332-7.713,26.418-17.028c18.21-15.302,27.434-32.431,27.415-50.914
	C313.102,227.397,300.728,215.036,285.531,215.036z"/>
<path style="fill:#EE3E3E;" d="M240.537,217.052c-18.467-7.288-37.769,6.513-37.75,25.651c0.032,30.855,27.24,55.216,53.968,67.832
	c0.4,0.189,0.831,0.283,1.262,0.283c0.433,0,0.866-0.095,1.268-0.286c1.846-0.876,4.984-2.448,8.848-4.708
	C216.327,276.103,212.656,228.179,240.537,217.052z"/>
<path style="fill:#E59770;" d="M352.59,336.596l-65.492,27.003c0.803-2.366,2.056-4.624,3.793-6.63l37.618-43.463
	c7.198-8.316,19.776-9.223,28.092-2.025c6.367,5.511,8.373,14.169,5.743,21.659C357.244,334.068,353.278,336.254,352.59,336.596z"/>
<path style="fill:#DD855F;" d="M308.906,336.155l-18.014,20.814c-1.736,2.006-2.99,4.264-3.793,6.63l65.492-27.003
	c0.688-0.342,4.654-2.528,9.754-3.456c2.104-5.992,1.232-12.728-2.456-18.005L308.906,336.155z"/>
<path style="fill:#F0A479;" d="M173.638,421.824c-7.553,1.017-14.656,4.2-20.425,9.18l-9.084,7.844l-53.852-62.366
	c13.333-11.421,27.646-21.657,42.862-30.415c17.016-9.794,23.857-10.799,60.123-14.686l0.002,0.001
	c11.869-1.042,17.779,1.539,66.54,15.37c17.593,4.989,13.716,21.959,13.716,21.959l78.988-32.567
	c1.549-0.77,19.889-10.995,30.036,5.555c8.894,15.612-6.165,26.914-9.189,28.883l-100.638,57.606c0,0-0.005,0.003-0.013,0.007
	c-14.906,9.704-30.446,7.734-37.287,6.144l-39.071-11.083C187.18,420.656,181.071,420.823,173.638,421.824z"/>
<path style="fill:#E59770;" d="M107.23,363.025c-5.81,4.277-11.469,8.76-16.952,13.457l53.852,62.367l9.084-7.844
	c2.47-2.133,5.197-3.915,8.088-5.359L107.23,363.025z"/>
<path style="fill:#FFC850;" d="M151.983,446.401l-67.646-78.341c-2.831-3.278-7.785-3.642-11.063-0.811l-52.474,45.309
	c-3.09,2.668-3.414,7.345-0.721,10.413l69.158,78.812c2.455,2.798,6.752,3.278,9.594,0.874c0.021-0.018,0.043-0.036,0.064-0.055
	l52.277-45.14C154.451,454.633,154.814,449.68,151.983,446.401z"/>
<path style="fill:#F9B938;" d="M31.135,403.634l-10.335,8.924c-3.09,2.668-3.414,7.345-0.721,10.413l69.158,78.812
	c2.455,2.798,6.752,3.278,9.594,0.874c0.021-0.018,0.043-0.036,0.064-0.055l10.858-9.376L31.135,403.634z"/>
<path style="fill:#E59770;" d="M228.808,147.75c-1.672,4.93-0.17,2.443-41.411,50.093c-7.198,8.316-19.776,9.223-28.092,2.025
	c-6.367-5.511-8.373-14.169-5.743-21.659C157.311,177.526,149.837,180.309,228.808,147.75z"/>
<path style="fill:#DD855F;" d="M207.943,174.105c18.601-21.492,19.243-21.572,20.866-26.355
	c-78.949,32.551-71.49,29.776-75.246,30.459c-2.013,5.734-1.3,12.148,1.996,17.314C158.564,194.757,153.324,196.625,207.943,174.105
	z"/>
<path style="fill:#F0A479;" d="M362.694,80.344l9.084-7.844l53.852,62.366c-13.333,11.421-27.646,21.657-42.862,30.415
	c-17.016,9.794-23.857,10.799-60.123,14.686l-0.002-0.001c-11.869,1.042-17.779-1.539-66.54-15.37
	c-17.593-4.989-13.716-21.959-13.716-21.959l-78.988,32.567c-1.549,0.77-19.889,10.995-30.036-5.555
	c-8.894-15.612,6.165-26.914,9.189-28.883L243.189,83.16c0,0,0.005-0.003,0.013-0.007c14.906-9.704,30.446-7.734,37.287-6.144
	l39.071,11.083C334.54,92.341,351.043,90.403,362.694,80.344z"/>
<g>
	<path style="fill:#E59770;" d="M339.562,92.169c14.85,4.211,31.141,2.337,42.762-7.452l-10.547-12.216l-9.084,7.844
		c-8.42,7.271-18.745,10.082-30.11,9.844L339.562,92.169z"/>
	<path style="fill:#E59770;" d="M162.556,144.843l100.636-57.607c0,0,0.005-0.003,0.012-0.008c9.594-6.246,19.447-7.653,27.077-7.44
		l-9.793-2.777c-6.841-1.59-22.381-3.56-37.287,6.144c-0.007,0.004-0.012,0.007-0.012,0.007l-100.635,57.607
		c-3.024,1.969-18.083,13.271-9.189,28.883c6.592,10.751,16.638,10.201,23.295,8.286
		C146.116,167.412,150.147,152.925,162.556,144.843z"/>
</g>
<path style="fill:#00C3FF;" d="M363.924,64.947l67.646,78.341c2.831,3.278,7.785,3.642,11.063,0.811l52.474-45.309
	c3.09-2.668,3.414-7.345,0.721-10.413L426.67,9.565c-2.455-2.798-6.752-3.278-9.594-0.874c-0.021,0.018-0.043,0.036-0.064,0.055
	l-52.277,45.14C361.456,56.716,361.093,61.669,363.924,64.947z"/>
<path style="fill:#06B0F2;" d="M375.252,44.803l-10.517,9.081c-3.278,2.831-3.641,7.784-0.811,11.063l67.646,78.341
	c2.831,3.278,7.784,3.642,11.063,0.811l10.517-9.081L375.252,44.803z"/>
<path d="M498.06,81.41L432.455,4.95c-0.125-0.145-0.254-0.285-0.389-0.419c-5.73-5.729-15.019-6.068-21.149-0.774L358.64,48.896
	c-3.103,2.678-4.977,6.406-5.275,10.493s1.012,8.047,3.689,11.148l2.047,2.371l-3.372,2.912
	c-8.949,7.729-22.418,10.041-36.023,6.182c-0.276-0.078-38.994-11.066-39.274-11.131c-7.057-1.64-25.315-4.23-42.752,7.02
	c-0.281,0.161-100.189,57.343-100.46,57.52c-9.119,5.941-21.821,20.793-11.578,38.773c0.04,0.07,0.081,0.139,0.123,0.208
	c4.389,7.158,10.717,11.421,18.102,12.603c0.275,7.339,3.543,14.373,9.358,19.406c11.298,9.78,28.453,8.545,38.234-2.756
	l37.029-42.784c1.501-1.734,2.759-3.636,3.771-5.676l1.528-0.63c1.996,7.485,7.453,14.936,18.604,18.097
	c46.46,13.177,56.131,16.994,69.139,15.556c36.264-3.887,44.575-5.076,62.839-15.588c13.137-7.561,25.923-16.4,38.1-26.318
	l2.227,2.579c5.551,6.427,15.238,7.118,21.644,1.585l49.764-42.969C503.814,100.842,504.69,89.139,498.06,81.41z M203.188,167.172
	l-23.07,26.655c-7.502,8.667-21.661,2.921-21.247-8.321C158.871,185.505,203.185,167.173,203.188,167.172z M376.888,159.618
	c-15.539,8.944-20.77,9.794-56.799,13.657c-9.867,1.058-17.599-2.007-63.603-15.055c-5.893-1.671-7.432-4.822-8.076-7.046
	c-0.881-3.039-0.319-5.943-0.321-5.943l0,0c0.008-0.035,0.009-0.07,0.017-0.105c0.014-0.065,0.033-0.128,0.045-0.193
	c0.004-0.019,0.474-2.024,1.767-3.768c1.118-1.508,2.801-2.977,6.827-2.421c14.193,1.953,47.991,6.472,48.33,6.518
	c4.117,0.549,7.881-2.335,8.429-6.441c0.549-4.106-2.334-7.88-6.44-8.429c-0.34-0.045-34.109-4.56-48.274-6.509
	c-13.261-1.827-21.075,6.362-24.154,14.098l-10.94,4.511l0,0c-86.349,35.603-66.882,27.874-73.291,29.724
	c-12.062,1.693-20.327-14.004-5.159-24.123l100.056-57.275c0.007-0.003,0.014-0.007,0.021-0.011c0.121-0.07,0.241-0.143,0.358-0.219
	c12.528-8.156,25.864-6.352,31.189-5.139l38.744,10.99c18.475,5.238,37.139,1.776,49.92-9.26l3.372-2.912
	c5.721,6.626,38.679,44.795,43.762,50.682C401.215,144.247,389.208,152.527,376.888,159.618z M486.302,96.142
	c-0.159,0.137-49.804,43.077-50.013,43.052c-0.287-0.021-68.294-78.555-67.846-78.942l52.277-45.14h0.001
	c0.101-0.087,0.227-0.13,0.353-0.13c0.102,0,0.203,0.028,0.291,0.084l65.308,76.114C487.935,92.649,487.769,94.876,486.302,96.142z"
	/>
<path d="M369.585,325.351c-0.904-24.188-31.427-35.327-47.591-16.649l-37.032,42.786c-1.501,1.734-2.758,3.635-3.768,5.674
	l-1.528,0.63c-1.996-7.485-7.453-14.936-18.604-18.097c-49.183-13.95-55.595-16.746-68.994-15.57
	c-0.048,0.004-0.096,0.009-0.144,0.014c-36.264,3.888-44.576,5.077-62.84,15.588c-13.138,7.562-25.924,16.401-38.1,26.319
	l-2.227-2.579c-5.532-6.405-15.241-7.116-21.644-1.585L14.638,407.19c-6.25,5.395-6.903,14.831-1.458,21.039l69.158,78.812
	c5.177,5.899,14.183,6.638,20.061,1.667c0.024-0.021,0.114-0.097,0.139-0.118l52.277-45.14c6.419-5.543,7.13-15.223,1.586-21.643
	l0,0l-2.047-2.371l3.372-2.911c8.95-7.729,22.42-10.039,36.023-6.182l34.783,9.866c3.985,1.127,8.133-1.184,9.264-5.169
	c1.13-3.986-1.185-8.133-5.17-9.263l-34.784-9.866c-18.476-5.239-37.138-1.777-49.92,9.259l-3.372,2.911l-43.762-50.681
	c11.451-9.299,23.458-17.58,35.779-24.672c15.552-8.951,20.774-9.795,56.882-13.665c8.441-0.735,13.718,0.786,42.653,9.098
	c22.421,6.44,27.049,6.473,28.943,13.011c0.881,3.039,0.319,5.943,0.321,5.943l0,0c-0.369,1.612-1.062,3.034-1.828,4.068
	c-1.119,1.507-2.809,2.975-6.826,2.421c-14.195-1.953-47.992-6.472-48.331-6.518c-4.116-0.546-7.88,2.334-8.429,6.441
	c-0.549,4.106,2.334,7.88,6.44,8.429c0.34,0.045,34.109,4.56,48.274,6.509c11.716,1.614,20.402-4.69,24.149-14.096
	c0.374-0.154,75.535-31.132,75.896-31.312c7.922-4.023,15.406-4.943,20.125,2.633c5.431,9.705-4.2,16.947-6.626,18.565
	l-100.056,57.274c-0.045,0.026-0.089,0.052-0.133,0.078c-0.079,0.047-0.169,0.103-0.245,0.153c-1.655,1.077-3.422,2.038-5.253,2.855
	c-3.782,1.689-5.479,6.126-3.789,9.908c1.689,3.784,6.129,5.48,9.907,3.79c2.492-1.113,4.906-2.42,7.141-3.866
	c0.297-0.17,100.164-57.328,100.451-57.515C403.437,359.219,390.352,328.674,369.585,325.351z M93.281,496.762l-68.724-78.316
	l52.361-45.212c0.032-0.027,0.118-0.098,0.248-0.082c0.143,0.01,0.208,0.086,0.235,0.118c7.064,8.181,60.404,69.954,67.646,78.341
	l0,0c0.028,0.032,0.093,0.107,0.083,0.249C145.113,452.08,93.447,496.618,93.281,496.762z M333.338,318.519
	c7.408-8.56,21.664-3.066,21.246,8.322c0,0-44.309,18.33-44.316,18.333L333.338,318.519z"/>
<path d="M248.145,233.08c1.403,2.475,5.546,5.792,10.443,5.673c4.051-0.095,7.802-2.509,9.833-5.779
	c9.662-15.524,29.875-12.025,35.909,2.106c1.627,3.809,6.034,5.58,9.845,3.952c3.81-1.627,5.579-6.035,3.952-9.844
	c-10.244-23.982-42.908-29.415-59.842-7.857c-20.529-26.302-62.717-11.36-62.686,21.69c0.036,34.748,30.123,61.323,58.27,74.608
	c2.897,1.368,6.195,1.298,8.945-0.009c20.237-9.601,41.751-26.638,51.708-47.212c1.805-3.729,0.244-8.215-3.484-10.019
	c-3.732-1.807-8.215-0.245-10.019,3.484c-8.113,16.763-26.081,30.872-42.7,39.245c-23.411-11.577-47.689-33.119-47.717-60.112
	C210.584,222.65,237.9,215.054,248.145,233.08z"/>
<g>
</g>
<g>
</g>
<g>
</g>
<g>
</g>
<g>
</g>
<g>
</g>
<g>
</g>
<g>
</g>
<g>
</g>
<g>
</g>
<g>
</g>
<g>
</g>
<g>
</g>
<g>
</g>
<g>
</g>
</svg>
