<svg width="640.5850097656249px" height="122.021240234375px" xmlns="http://www.w3.org/2000/svg" viewBox="-70.29250488281247 13.9893798828125 640.5850097656249 122.021240234375" style="background: rgba(0, 0, 0, 0);" preserveAspectRatio="xMidYMid"><defs><filter id="editing-extrude-glow"><feFlood flood-color="rgba(87.14285714285714%,2.532075471698114%,2.532075471698114%,0.561)" result="flood-1"></feFlood><feMorphology operator="erode" radius="1" in="SourceAlpha" result="erode"></feMorphology><feComposite operator="in" in="flood-1" in2="erode" result="comp1"></feComposite><feConvolveMatrix order="1,1" divisor="1" in="comp1" result="convolve" kernelMatrix="1"></feConvolveMatrix><feOffset dx="-1" dy="0" in="convolve" result="extrude"></feOffset><feComposite operator="in" in="flood-1" in2="extrude" result="comp-extrude"></feComposite><feFlood flood-color="#625dd8" result="flood-2"></feFlood><feComposite operator="in" in="flood-2" in2="SourceAlpha" result="comp2"></feComposite><feMorphology operator="dilate" radius="1" in="comp2" result="dilate"></feMorphology><feOffset dx="-1.5" dy="0" in="dilate" result="offset"></feOffset><feGaussianBlur in="offset" stdDeviation="5.8" result="blur"></feGaussianBlur><feComponentTransfer in="blur" result="shadow"><feFuncA type="linear" slope="0.8" intercept="-0.2"></feFuncA></feComponentTransfer><feMerge><feMergeNode in="shadow"></feMergeNode><feMergeNode in="comp-extrude"></feMergeNode><feMergeNode in="SourceGraphic"></feMergeNode></feMerge></filter></defs><g filter="url(#editing-extrude-glow)"><g transform="translate(21.454987168312073, 98.7578125)"><path d="M34.50-13.25L34.50-13.25L34.50-13.25Q36.16-12.03 36.16-9.44L36.16-9.44L36.16-9.44Q36.16-6.85 35.04-5.02L35.04-5.02L35.04-5.02Q33.92-3.20 31.74-1.79L31.74-1.79L31.74-1.79Q27.07 1.22 18.91 1.22L18.91 1.22L18.91 1.22Q10.75 1.22 6.30-3.04L6.30-3.04L6.30-3.04Q1.86-7.30 1.86-14.85L1.86-14.85L1.86-14.85Q1.86-25.54 7.42-33.66L7.42-33.66L7.42-33.66Q11.65-39.68 19.20-42.24L19.20-42.24L19.20-42.24Q23.10-43.52 26.94-43.52L26.94-43.52L26.94-43.52Q30.78-43.52 33.15-43.01L33.15-43.01L33.15-43.01Q35.52-42.50 37.31-41.47L37.31-41.47L37.31-41.47Q41.22-39.23 41.22-35.65L41.22-35.65L41.22-35.65Q41.22-32.38 38.14-29.95L38.14-29.95L38.14-29.95Q35.33-27.78 33.02-27.78L33.02-27.78L33.02-27.78Q30.72-27.78 29.76-28.10L29.76-28.10L29.76-28.10Q30.02-30.40 30.02-31.90L30.02-31.90L30.02-31.90Q30.02-33.41 29.95-34.50L29.95-34.50L29.95-34.50Q29.89-35.58 29.57-36.61L29.57-36.61L29.57-36.61Q28.93-38.98 26.98-38.98L26.98-38.98L26.98-38.98Q25.02-38.98 23.07-37.15L23.07-37.15L23.07-37.15Q21.12-35.33 19.46-32.26L19.46-32.26L19.46-32.26Q15.68-25.28 15.68-17.02L15.68-17.02L15.68-17.02Q15.68-13.06 17.92-10.78L17.92-10.78L17.92-10.78Q20.16-8.51 24.96-8.51L24.96-8.51L24.96-8.51Q28.54-8.51 31.94-10.88L31.94-10.88L31.94-10.88Q33.41-11.90 34.50-13.25ZM40.83-0.32L40.83-0.32L48.90-42.24L48.90-42.24Q56.45-42.88 61.31-42.88L61.31-42.88L61.31-42.88Q66.18-42.88 69.31-42.46L69.31-42.46L69.31-42.46Q72.45-42.05 74.56-40.96L74.56-40.96L74.56-40.96Q78.78-38.91 78.78-33.28L78.78-33.28L78.78-33.28Q78.78-30.02 75.97-27.26L75.97-27.26L75.97-27.26Q73.34-24.77 70.46-24.19L70.46-24.19L70.46-24.19Q73.54-23.68 75.71-21.38L75.71-21.38L75.71-21.38Q78.02-18.94 78.02-15.17L78.02-15.17L78.02-15.17Q78.02-7.87 72.58-3.62L72.58-3.62L72.58-3.62Q67.14 0.64 56.45 0.64L56.45 0.64L56.45 0.64Q49.09 0.64 40.83-0.32ZM58.24-20.61L55.04-4.03L55.04-4.03Q55.62-3.97 55.74-3.97L55.74-3.97L56.32-3.97L56.32-3.97Q61.57-3.97 63.81-7.42L63.81-7.42L63.81-7.42Q65.47-10.11 65.47-15.04L65.47-15.04L65.47-15.04Q65.47-17.66 63.78-19.07L63.78-19.07L63.78-19.07Q62.08-20.48 58.24-20.61L58.24-20.61ZM67.97-33.22L67.97-33.22L67.97-33.22Q67.97-38.53 62.85-38.53L62.85-38.53L62.27-38.53L62.27-38.53Q62.02-38.53 61.63-38.46L61.63-38.46L59.07-24.96L59.71-24.96L59.71-24.96Q67.97-25.15 67.97-33.22ZM110.02 1.28L110.02 1.28L110.02 1.28Q101.82 1.28 101.06-10.37L101.06-10.37L90.05-10.37L90.05-10.37Q88.77-7.42 87.87-4.86L87.87-4.86L86.21 0L77.25 0L97.41-42.24L111.17-42.24L113.86-11.14L113.86-11.14Q114.50-4.42 117.06-2.43L117.06-2.43L117.06-2.43Q115.20 1.28 110.02 1.28ZM95.55-23.17L92.03-15.04L100.86-15.04L100.10-31.49L100.10-33.22L95.55-23.17ZM136.32-10.37L136.32-10.37L136.32-10.37Q134.27-11.84 134.27-14.66L134.27-14.66L134.27-14.66Q134.27-16.19 135.04-17.44L135.04-17.44L135.04-17.44Q135.81-18.69 137.34-18.88L137.34-18.88L149.95-18.88L149.95-18.88Q152.06-18.88 152.70-20.16L152.70-20.16L152.70-20.16Q153.73-19.58 154.18-18.37L154.18-18.37L154.18-18.37Q154.62-17.15 154.62-15.87L154.62-15.87L154.62-15.87Q154.62-14.59 153.63-13.34L153.63-13.34L153.63-13.34Q152.64-12.10 151.17-11.97L151.17-11.97L139.46-11.97L139.46-11.97Q138.11-11.97 137.47-11.55L137.47-11.55L137.47-11.55Q136.83-11.14 136.32-10.37ZM200.32 1.28L200.32 1.28L200.32 1.28Q192.13 1.28 191.36-10.37L191.36-10.37L180.35-10.37L180.35-10.37Q179.07-7.42 178.18-4.86L178.18-4.86L176.51 0L167.55 0L187.71-42.24L201.47-42.24L204.16-11.14L204.16-11.14Q204.80-4.42 207.36-2.43L207.36-2.43L207.36-2.43Q205.50 1.28 200.32 1.28ZM185.86-23.17L182.34-15.04L191.17-15.04L190.40-31.49L190.40-33.22L185.86-23.17ZM242.50-26.62L242.50-26.62L242.50-26.62Q242.50-23.94 240.26-22.27L240.26-22.27L240.26-22.27Q238.02-20.61 234.37-20.61L234.37-20.61L234.37-20.61Q232.83-20.61 231.94-21.06L231.94-21.06L231.94-21.06Q232.64-22.72 232.86-24.80L232.86-24.80L232.86-24.80Q233.09-26.88 233.09-27.46L233.09-27.46L233.09-27.46Q233.09-30.14 231.23-30.14L231.23-30.14L231.23-30.14Q229.95-30.14 228.51-28.54L228.51-28.54L228.51-28.54Q227.07-26.94 225.86-24.45L225.86-24.45L225.86-24.45Q223.17-18.69 223.17-12.86L223.17-12.86L223.17-12.86Q223.17-9.66 224.38-8.22L224.38-8.22L224.38-8.22Q225.60-6.78 228.29-6.78L228.29-6.78L228.29-6.78Q232.00-6.78 234.94-9.86L234.94-9.86L234.94-9.86Q235.78-10.82 236.22-11.90L236.22-11.90L236.22-11.90Q238.66-10.62 238.66-7.10L238.66-7.10L238.66-7.10Q238.66-3.52 234.69-1.15L234.69-1.15L234.69-1.15Q230.59 1.28 224.06 1.28L224.06 1.28L224.06 1.28Q211.07 1.28 211.07-12.48L211.07-12.48L211.07-12.48Q211.07-22.53 216.77-28.29L216.77-28.29L216.77-28.29Q222.27-33.92 232.38-33.92L232.38-33.92L232.38-33.92Q242.50-33.92 242.50-26.62ZM275.65-26.62L275.65-26.62L275.65-26.62Q275.65-23.94 273.41-22.27L273.41-22.27L273.41-22.27Q271.17-20.61 267.52-20.61L267.52-20.61L267.52-20.61Q265.98-20.61 265.09-21.06L265.09-21.06L265.09-21.06Q265.79-22.72 266.02-24.80L266.02-24.80L266.02-24.80Q266.24-26.88 266.24-27.46L266.24-27.46L266.24-27.46Q266.24-30.14 264.38-30.14L264.38-30.14L264.38-30.14Q263.10-30.14 261.66-28.54L261.66-28.54L261.66-28.54Q260.22-26.94 259.01-24.45L259.01-24.45L259.01-24.45Q256.32-18.69 256.32-12.86L256.32-12.86L256.32-12.86Q256.32-9.66 257.54-8.22L257.54-8.22L257.54-8.22Q258.75-6.78 261.44-6.78L261.44-6.78L261.44-6.78Q265.15-6.78 268.10-9.86L268.10-9.86L268.10-9.86Q268.93-10.82 269.38-11.90L269.38-11.90L269.38-11.90Q271.81-10.62 271.81-7.10L271.81-7.10L271.81-7.10Q271.81-3.52 267.84-1.15L267.84-1.15L267.84-1.15Q263.74 1.28 257.22 1.28L257.22 1.28L257.22 1.28Q244.22 1.28 244.22-12.48L244.22-12.48L244.22-12.48Q244.22-22.53 249.92-28.29L249.92-28.29L249.92-28.29Q255.42-33.92 265.54-33.92L265.54-33.92L265.54-33.92Q275.65-33.92 275.65-26.62ZM303.30-10.82L303.30-10.82L303.30-10.82Q304.90-9.73 304.90-7.33L304.90-7.33L304.90-7.33Q304.90-4.93 303.68-3.39L303.68-3.39L303.68-3.39Q302.46-1.86 300.48-0.83L300.48-0.83L300.48-0.83Q296.38 1.28 291.97 1.28L291.97 1.28L291.97 1.28Q287.55 1.28 284.96 0.32L284.96 0.32L284.96 0.32Q282.37-0.64 280.64-2.43L280.64-2.43L280.64-2.43Q277.25-5.82 277.25-12.03L277.25-12.03L277.25-12.03Q277.25-21.70 282.50-27.58L282.50-27.58L282.50-27.58Q288.13-33.92 297.92-33.92L297.92-33.92L297.92-33.92Q304.00-33.92 307.01-31.36L307.01-31.36L307.01-31.36Q309.25-29.44 309.25-26.30L309.25-26.30L309.25-26.30Q309.25-15.04 289.79-15.04L289.79-15.04L289.79-15.04Q289.54-13.38 289.54-11.97L289.54-11.97L289.54-11.97Q289.54-9.02 290.85-7.90L290.85-7.90L290.85-7.90Q292.16-6.78 294.59-6.78L294.59-6.78L294.59-6.78Q297.02-6.78 299.62-7.90L299.62-7.90L299.62-7.90Q302.21-9.02 303.30-10.82ZM290.24-17.79L290.24-17.79L290.24-17.79Q294.78-17.79 297.41-20.61L297.41-20.61L297.41-20.61Q300.03-23.30 300.03-27.58L300.03-27.58L300.03-27.58Q300.03-29.06 299.49-29.86L299.49-29.86L299.49-29.86Q298.94-30.66 297.86-30.66L297.86-30.66L297.86-30.66Q296.77-30.66 295.84-30.24L295.84-30.24L295.84-30.24Q294.91-29.82 293.95-28.42L293.95-28.42L293.95-28.42Q291.58-25.22 290.24-17.79ZM330.56-22.46L330.56-22.46L330.56-22.46Q331.46-24.83 331.46-26.88L331.46-26.88L331.46-26.88Q331.46-30.66 328.38-30.66L328.38-30.66L328.38-30.66Q326.78-30.66 325.47-29.22L325.47-29.22L325.47-29.22Q324.16-27.78 324.16-25.98L324.16-25.98L324.16-25.98Q324.16-24.70 325.18-23.68L325.18-23.68L325.18-23.68Q326.66-22.27 330.43-19.97L330.43-19.97L330.43-19.97Q334.21-17.66 335.65-15.78L335.65-15.78L335.65-15.78Q337.09-13.89 337.09-11.30L337.09-11.30L337.09-11.30Q337.09-8.70 335.84-6.34L335.84-6.34L335.84-6.34Q334.59-3.97 332.35-2.30L332.35-2.30L332.35-2.30Q327.55 1.28 319.87 1.28L319.87 1.28L319.87 1.28Q315.71 1.28 312.51-0.90L312.51-0.90L312.51-0.90Q309.31-3.01 309.31-5.50L309.31-5.50L309.31-5.50Q309.31-8 311.14-9.47L311.14-9.47L311.14-9.47Q312.96-10.94 315.65-10.94L315.65-10.94L315.65-10.94Q318.34-10.94 320.00-9.92L320.00-9.92L320.00-9.92Q319.17-7.81 319.17-6.40L319.17-6.40L319.17-6.40Q319.17-2.18 322.75-2.18L322.75-2.18L322.75-2.18Q324.29-2.18 325.31-3.14L325.31-3.14L325.31-3.14Q326.34-4.10 326.34-5.76L326.34-5.76L326.34-5.76Q326.34-9.02 320.83-12.48L320.83-12.48L320.83-12.48Q316.35-15.42 315.33-16.58L315.33-16.58L315.33-16.58Q313.60-18.62 313.60-21.18L313.60-21.18L313.60-21.18Q313.60-23.74 314.82-26.18L314.82-26.18L314.82-26.18Q316.03-28.61 318.27-30.34L318.27-30.34L318.27-30.34Q322.94-33.92 331.07-33.92L331.07-33.92L331.07-33.92Q335.23-33.92 337.70-32.26L337.70-32.26L337.70-32.26Q340.16-30.59 340.16-27.78L340.16-27.78L340.16-27.78Q340.16-24.96 338.46-23.36L338.46-23.36L338.46-23.36Q336.77-21.76 333.70-21.76L333.70-21.76L333.70-21.76Q331.58-21.76 330.56-22.46ZM357.89-3.52L357.89-3.52L357.89-3.52Q355.90 1.28 349.57 1.28L349.57 1.28L349.57 1.28Q346.30 1.28 344.26-0.96L344.26-0.96L344.26-0.96Q342.53-2.94 342.53-4.93L342.53-4.93L342.53-4.93Q342.53-10.11 344.90-20.22L344.90-20.22L347.26-32.64L360.26-33.92L356.35-13.70L356.35-13.70Q355.26-8.96 355.26-7.30L355.26-7.30L355.26-7.30Q355.26-3.65 357.89-3.52ZM348.42-41.54L348.42-41.54L348.42-41.54Q348.42-44.03 350.50-45.38L350.50-45.38L350.50-45.38Q352.58-46.72 355.58-46.72L355.58-46.72L355.58-46.72Q358.59-46.72 360.42-45.38L360.42-45.38L360.42-45.38Q362.24-44.03 362.24-41.54L362.24-41.54L362.24-41.54Q362.24-39.04 360.22-37.76L360.22-37.76L360.22-37.76Q358.21-36.48 355.20-36.48L355.20-36.48L355.20-36.48Q352.19-36.48 350.30-37.76L350.30-37.76L350.30-37.76Q348.42-39.04 348.42-41.54ZM362.50-3.07L362.50-3.07L370.43-44.80L383.42-46.08L381.44-36.29L381.44-36.29Q380.74-33.28 379.84-31.17L379.84-31.17L379.84-31.17Q381.25-32.96 384.32-33.66L384.32-33.66L384.32-33.66Q385.22-33.92 386.30-33.92L386.30-33.92L386.30-33.92Q392.26-33.92 395.52-30.30L395.52-30.30L395.52-30.30Q398.78-26.69 398.78-19.71L398.78-19.71L398.78-19.71Q398.78-10.62 393.60-4.93L393.60-4.93L393.60-4.93Q388.03 1.28 377.92 1.28L377.92 1.28L377.92 1.28Q370.94 1.28 365.70-1.02L365.70-1.02L365.70-1.02Q363.84-1.86 362.50-3.07ZM378.75-22.40L375.36-3.65L375.36-3.65Q376.70-2.50 378.37-2.50L378.37-2.50L378.37-2.50Q380.03-2.50 380.99-3.14L380.99-3.14L380.99-3.14Q381.95-3.78 382.66-5.06L382.66-5.06L382.66-5.06Q384.58-8.51 386.11-19.07L386.11-19.07L386.11-19.07Q386.56-22.08 386.56-25.09L386.56-25.09L386.56-25.09Q386.56-28.10 385.89-29.06L385.89-29.06L385.89-29.06Q385.22-30.02 383.94-30.02L383.94-30.02L383.94-30.02Q380.03-30.02 378.75-22.40L378.75-22.40ZM417.92-3.52L417.92-3.52L417.92-3.52Q415.94 1.28 409.60 1.28L409.60 1.28L409.60 1.28Q406.40 1.28 404.35-0.96L404.35-0.96L404.35-0.96Q402.69-2.82 402.69-4.93L402.69-4.93L402.69-4.93Q402.69-9.73 404.93-20.22L404.93-20.22L409.60-44.80L422.59-46.08L416.38-13.70L416.38-13.70Q415.30-8.96 415.30-7.30L415.30-7.30L415.30-7.30Q415.30-3.65 417.92-3.52ZM449.28-10.82L449.28-10.82L449.28-10.82Q450.88-9.73 450.88-7.33L450.88-7.33L450.88-7.33Q450.88-4.93 449.66-3.39L449.66-3.39L449.66-3.39Q448.45-1.86 446.46-0.83L446.46-0.83L446.46-0.83Q442.37 1.28 437.95 1.28L437.95 1.28L437.95 1.28Q433.54 1.28 430.94 0.32L430.94 0.32L430.94 0.32Q428.35-0.64 426.62-2.43L426.62-2.43L426.62-2.43Q423.23-5.82 423.23-12.03L423.23-12.03L423.23-12.03Q423.23-21.70 428.48-27.58L428.48-27.58L428.48-27.58Q434.11-33.92 443.90-33.92L443.90-33.92L443.90-33.92Q449.98-33.92 452.99-31.36L452.99-31.36L452.99-31.36Q455.23-29.44 455.23-26.30L455.23-26.30L455.23-26.30Q455.23-15.04 435.78-15.04L435.78-15.04L435.78-15.04Q435.52-13.38 435.52-11.97L435.52-11.97L435.52-11.97Q435.52-9.02 436.83-7.90L436.83-7.90L436.83-7.90Q438.14-6.78 440.58-6.78L440.58-6.78L440.58-6.78Q443.01-6.78 445.60-7.90L445.60-7.90L445.60-7.90Q448.19-9.02 449.28-10.82ZM436.22-17.79L436.22-17.79L436.22-17.79Q440.77-17.79 443.39-20.61L443.39-20.61L443.39-20.61Q446.02-23.30 446.02-27.58L446.02-27.58L446.02-27.58Q446.02-29.06 445.47-29.86L445.47-29.86L445.47-29.86Q444.93-30.66 443.84-30.66L443.84-30.66L443.84-30.66Q442.75-30.66 441.82-30.24L441.82-30.24L441.82-30.24Q440.90-29.82 439.94-28.42L439.94-28.42L439.94-28.42Q437.57-25.22 436.22-17.79Z" fill="#ffffff"></path></g></g><style>text {
  font-size: 64px;
  font-family: Arial Black;
  dominant-baseline: central;
  text-anchor: middle;
}</style></svg>