<svg height="511pt" viewBox="-14 0 511 511.99966" width="511pt" xmlns="http://www.w3.org/2000/svg"><path d="m345.207031 279.808594c-4.492187 5.285156-11.421875 8.832031-19.367187 9.230468l-120.03125 5.882813-8.039063-18.203125-11.765625-26.671875c2.742188-1.066406 5.746094-1.726563 8.90625-1.882813l128.09375-6.28125c14.425782-.699218 26.765625 9.273438 27.550782 22.296876.355468 5.851562-1.683594 11.324218-5.347657 15.628906zm0 0" fill="#ffc48f"/><path d="m345.207031 279.808594c-4.492187 5.285156-11.421875 8.832031-19.367187 9.230468l-120.03125 5.882813-8.039063-18.203125 125.234375-6.144531c8.960938-.4375 17.125 3.246093 22.203125 9.234375zm0 0" fill="#e59a5c"/><path d="m66.535156 315.183594v192.757812c3.527344 1.789063 7.515625 2.785156 11.734375 2.785156 14.457031 0 26.171875-11.714843 26.171875-26.171874v-166.988282" fill="#3b3d4c"/><path d="m109.101562 215.253906v80.296875h-108.601562v-80.296875c0-29.988281 24.316406-54.304687 54.304688-54.304687 29.992187 0 54.296874 24.316406 54.296874 54.304687zm0 0" fill="#e3f4fc"/><path d="m129.164062 56.664062c13.164063 13.886719 19.949219 33.523438 16.710938 53.882813-5.53125 34.761719-38.1875 58.457031-72.953125 52.929687-34.753906-5.527343-58.449219-38.1875-52.921875-72.953124l7.117188-44.738282 45.777343-25.421875zm0 0" fill="#ffc48f"/><path d="m87.230469 164.144531c-4.683594.308594-9.476563.101563-14.308594-.664062-34.753906-5.527344-58.449219-38.1875-52.917969-72.953125l7.113282-44.738282 45.785156-25.425781 16.726562 10.792969-34.398437 19.101562-7.117188 44.742188c-4.761719 29.929688 12.140625 58.296875 39.117188 69.144531zm0 0" fill="#e59a5c"/><path d="m27.117188 45.785156-7.113282 44.742188c17.714844 2.820312 34.363282-9.257813 37.179688-26.976563l2.574218-16.191406 82.058594 13.050781c1.152344.183594 2.304688.328125 3.449219.433594 32.277344 2.917969 37.847656-45.234375 5.84375-50.324219l-61.828125-9.835937c-29.621094-4.710938-57.449219 15.480468-62.164062 45.101562zm0 0" fill="#f78e39"/><path d="m124.195312 6.234375c-28.433593-4.523437-55.226562 13.910156-61.484374 41.59375l-2.949219-.46875-2.574219 16.191406c-1.410156 8.863281-6.277344 16.304688-13.007812 21.1875-6.730469 4.882813-15.3125 7.199219-24.175782 5.789063l7.113282-44.742188c4.714843-29.621094 32.546874-49.816406 62.167968-45.101562zm0 0" fill="#e27727"/><path d="m95.292969 99.703125c-.410157 0-.824219-.03125-1.246094-.097656-4.28125-.679688-7.199219-4.703125-6.519531-8.984375l2.332031-14.664063c.683594-4.285156 4.710937-7.203125 8.988281-6.523437 4.28125.683594 7.199219 4.707031 6.519532 8.988281l-2.332032 14.664063c-.613281 3.863281-3.953125 6.617187-7.742187 6.617187zm0 0" fill="#3b3d4c"/><path d="m120.953125 103.785156c-.410156 0-.824219-.03125-1.242187-.097656-4.28125-.683594-7.199219-4.707031-6.519532-8.988281l2.332032-14.664063c.679687-4.28125 4.703124-7.199218 8.988281-6.519531 4.28125.683594 7.199219 4.707031 6.519531 8.988281l-2.332031 14.664063c-.617188 3.863281-3.953125 6.617187-7.746094 6.617187zm0 0" fill="#3b3d4c"/><path d="m109.101562 295.550781c0 14.988281-6.082031 28.578125-15.898437 38.394531-3.613281 3.613282-7.726563 6.710938-12.226563 9.191407v141.417969c0 14.457031-11.714843 26.171874-26.171874 26.171874-14.453126 0-26.167969-11.714843-26.167969-26.171874v-141.40625c-16.769531-9.242188-28.136719-27.089844-28.136719-47.597657zm0 0" fill="#5c5e70"/><path d="m64.113281 161.742188c-25.5625 4.40625-45.011719 26.695312-45.011719 53.511718v80.296875h-18.601562v-80.296875c0-29.988281 24.316406-54.304687 54.304688-54.304687 3.171874 0 6.292968.269531 9.308593.792969zm0 0" fill="#bdd9e5"/><path d="m64.113281 509.019531c-2.890625 1.097657-6.03125 1.707031-9.308593 1.707031-14.453126 0-26.167969-11.714843-26.167969-26.171874v-141.40625c-16.769531-9.242188-28.136719-27.089844-28.136719-47.597657h18.601562c0 20.507813 11.367188 38.355469 28.136719 47.597657v141.40625c0 11.179687 7.011719 20.726562 16.875 24.464843zm0 0" fill="#3b3d4c"/><path d="m174.75 297.832031c-36.816406 0-80.527344-8.214843-113.929688-39.367187-7.359374-6.867188-13.179687-13.910156-17.765624-20.515625-10.226563-14.75-2.667969-35.171875 14.699218-39.683594.25-.074219.5-.136719.742188-.199219 10.382812-2.703125 21.417968 1.246094 27.539062 10.058594 3.015625 4.332031 7.066406 9.136719 12.4375 13.816406 18.171875 15.839844 43.773438 23.753906 76.277344 23.605469 6.144531-.03125 8.21875 52.285156 0 52.285156zm0 0" fill="#e3f4fc"/><path d="m179.597656 285.984375c-.753906 6.875-2.316406 11.847656-4.847656 11.847656-36.816406 0-80.527344-8.214843-113.929688-39.367187-7.359374-6.867188-13.179687-13.910156-17.765624-20.515625 4.597656-4.597657 12.117187-4.414063 16.449218.429687 2.460938 2.75 5.148438 5.511719 8.078125 8.246094 32.828125 30.609375 75.609375 39.074219 112.015625 39.359375zm0 0" fill="#bdd9e5"/><path d="m198.167969 296.765625c-7.339844.648437-15.199219 1.066406-23.417969 1.066406v-52.285156c6.144531-.03125 12.550781-.34375 19.199219-.953125 14.578125-1.328125 27.445312 9.558594 28.480469 24.234375 1.015624 14.289063-9.984376 26.660156-24.261719 27.9375zm0 0" fill="#ffc48f"/><path d="m198.167969 296.765625c-7.339844.648437-15.199219 1.066406-23.417969 1.066406v-12.003906c8.21875 0 16.078125-.421875 23.417969-1.070313 12.152343-1.085937 21.929687-7.074218 23.9375-18.578124.15625.867187.261719 1.746093.324219 2.648437 1.015624 14.289063-9.984376 26.660156-24.261719 27.9375zm0 0" fill="#e59a5c"/><path d="m305.640625 324.511719-51.277344 8.933593c-7.96875 1.386719-14.648437 6.816407-17.636719 14.34375l-30.476562 76.960938c-4.726562 11.945312 1.117188 25.460938 13.0625 30.1875 2.808594 1.113281 5.703125 1.636719 8.558594 1.636719 9.253906 0 18.007812-5.5625 21.628906-14.699219l25.671875-64.839844h54.785156" fill="#34abe0"/><path d="m222.019531 455.808594c1.945313.523437 3.90625.765625 5.851563.765625 9.257812 0 18.011718-5.5625 21.628906-14.699219l25.675781-64.839844c-7.09375 0-13.464843 4.332032-16.078125 10.925782l-21.347656 53.914062c-2.835938 7.152344-8.816406 12.121094-15.730469 13.933594zm0 0" fill="#1895b7"/><path d="m198.945312 464.425781h96.070313c4.335937 0 7.851563-3.515625 7.851563-7.851562 0-4.335938-3.515626-7.851563-7.851563-7.851563h-96.070313c-4.335937 0-7.851562 3.515625-7.851562 7.851563 0 4.335937 3.515625 7.851562 7.851562 7.851562zm0 0" fill="#3b3d4c"/><path d="m428.714844 320.019531v-36.167969c0-35.535156-28.808594-64.347656-64.347656-64.347656-17.765626 0-33.851563 7.203125-45.496094 18.847656-11.648438 11.648438-18.847656 27.730469-18.847656 45.5v72.632813" fill="#f75772"/><path d="m349.671875 221.191406c28.453125 6.648438 55.804687 32.175782 55.804687 62.660156v38.449219l23.238282-2.277343v-36.171876c0-35.535156-28.808594-64.347656-64.347656-64.347656-5.058594 0-9.980469.589844-14.695313 1.6875zm0 0" fill="#e0244c"/><path d="m325.605469 105.191406c-15.183594 11.648438-24.96875 29.972656-24.96875 50.585938 0 35.203125 28.53125 63.734375 63.734375 63.734375 35.191406 0 63.722656-28.53125 63.722656-63.734375v-45.300782l-41.21875-32.296874zm0 0" fill="#ffc48f"/><path d="m350.136719 217.925781c4.574219 1.039063 9.339843 1.589844 14.230469 1.589844 35.191406 0 63.722656-28.53125 63.722656-63.734375v-45.300781l-41.21875-32.300781-18.214844 8.027343 30.96875 24.269531v45.304688c0 30.308594-21.144531 55.667969-49.488281 62.144531zm0 0" fill="#e59a5c"/><path d="m483.375 405.96875c0 58.558594-47.472656 106.03125-106.03125 106.03125s-106.03125-47.472656-106.03125-106.03125 47.472656-106.03125 106.03125-106.03125 106.03125 47.472656 106.03125 106.03125zm0 0" fill="#3b3d4c"/><path d="m456.492188 405.96875c0 43.714844-35.433594 79.148438-79.148438 79.148438-43.710938 0-79.148438-35.433594-79.148438-79.148438 0-43.710938 35.4375-79.148438 79.148438-79.148438 43.714844 0 79.148438 35.4375 79.148438 79.148438zm0 0" fill="#e6e6e6"/><path d="m393.855469 405.96875c0 9.121094-7.390625 16.511719-16.511719 16.511719-9.117188 0-16.511719-7.390625-16.511719-16.511719 0-9.117188 7.394531-16.511719 16.511719-16.511719 9.121094 0 16.511719 7.394531 16.511719 16.511719zm0 0" fill="#5c5e70"/><path d="m428.089844 110.476562v45.304688c-17.9375 0-32.480469-14.542969-32.480469-32.480469v-16.394531h-56.917969c-28.019531 0-50.734375-22.714844-50.734375-50.734375h85.828125c29.992188 0 54.304688 24.3125 54.304688 54.304687zm0 0" fill="#5c5e70"/><g fill="#3b3d4c"><path d="m338.433594 56.171875c28.792968 0 52.355468 22.410156 54.1875 50.734375h2.988281v16.390625c0 8.980469 3.636719 17.089844 9.515625 22.96875s13.992188 9.515625 22.96875 9.515625v-45.300781c0-29.992188-24.320312-54.308594-54.308594-54.308594zm0 0"/><path d="m353.539062 153.113281c4.335938 0 7.847657-3.515625 7.847657-7.847656v-14.851563c0-4.335937-3.511719-7.847656-7.847657-7.847656-4.335937 0-7.851562 3.511719-7.851562 7.847656v14.851563c0 4.332031 3.515625 7.847656 7.851562 7.847656zm0 0"/><path d="m327.554688 153.113281c4.332031 0 7.847656-3.515625 7.847656-7.847656v-14.851563c0-4.335937-3.515625-7.847656-7.847656-7.847656-4.335938 0-7.851563 3.511719-7.851563 7.847656v14.851563c0 4.332031 3.515625 7.847656 7.851563 7.847656zm0 0"/></g><path d="m382.203125 283.851562v47.90625l-24.28125 24.277344c-9.082031 9.082032-9.082031 23.808594 0 32.890625 4.542969 4.539063 10.496094 6.808594 16.445313 6.808594 5.953124 0 11.90625-2.269531 16.445312-6.808594l31.089844-31.089843c4.363281-4.363282 6.8125-10.277344 6.8125-16.445313v-57.539063" fill="#ffc48f"/><path d="m362.75 392.628906c3.582031 2.074219 7.601562 3.105469 11.617188 3.105469 5.957031 0 11.910156-2.269531 16.449218-6.808594l31.085938-31.089843c4.363281-4.363282 6.8125-10.277344 6.8125-16.445313v-57.539063h-23.238282v57.535157c0 6.167969-2.449218 12.085937-6.8125 16.449219l-31.085937 31.089843c-1.480469 1.476563-3.109375 2.714844-4.828125 3.703125zm0 0" fill="#e59a5c"/><path d="m276.210938 484.285156c0 15.308594-12.40625 27.714844-27.710938 27.714844-15.308594 0-27.714844-12.40625-27.714844-27.714844 0-15.304687 12.40625-27.710937 27.714844-27.710937 15.304688 0 27.710938 12.40625 27.710938 27.710937zm0 0" fill="#5c5e70"/><path d="m248.496094 492.136719c3.214844 0 6.171875-2.03125 7.320312-5.027344 1.199219-3.113281.257813-6.777344-2.335937-8.890625-5.585938-4.554688-14.097657.515625-12.679688 7.605469.730469 3.621093 3.996094 6.3125 7.695313 6.3125zm0 0" fill="#3b3d4c"/></svg>